<svg width="48" height="48" viewBox="0 0 48 48" fill="none" xmlns="http://www.w3.org/2000/svg">
<path fill-rule="evenodd" clip-rule="evenodd" d="M44.9929 21.6063H44.9999C46.2856 21.6063 47.3309 22.647 47.3333 23.9327C47.3519 30.165 44.9416 36.0333 40.5456 40.4527C36.1519 44.872 30.2999 47.315 24.0676 47.3337H23.9999C17.7909 47.3337 11.9506 44.9257 7.54761 40.546C3.12828 36.1523 0.685278 30.3003 0.666612 24.068C0.647945 17.8333 3.05828 11.9673 7.45428 7.54799C11.8479 3.12866 17.6999 0.685659 23.9323 0.666992C25.7873 0.694992 27.6773 0.881659 29.4879 1.31566C30.7386 1.61899 31.5109 2.87899 31.2076 4.13199C30.9066 5.38266 29.6396 6.15266 28.3936 5.85399C26.9446 5.50399 25.4069 5.35699 23.9463 5.33366C18.9599 5.34766 14.2769 7.30299 10.7629 10.838C7.24661 14.373 5.31928 19.0677 5.33328 24.054C5.34728 29.0403 7.30261 33.721 10.8376 37.2373C14.3609 40.7397 19.0323 42.667 23.9999 42.667H24.0536C29.0399 42.653 33.7229 40.6977 37.2369 37.1627C40.7533 33.6253 42.6806 28.933 42.6666 23.9467C42.6643 22.6587 43.7049 21.6087 44.9929 21.6063ZM15.3502 22.3507C16.2626 21.4384 17.7372 21.4384 18.6496 22.3507L23.8856 27.5867L38.5786 10.796C39.4279 9.83238 40.9002 9.72971 41.8709 10.579C42.8392 11.426 42.9372 12.9007 42.0879 13.8714L25.7546 32.538C25.3299 33.0234 24.7232 33.3104 24.0769 33.3337H23.9999C23.3816 33.3337 22.7889 33.0887 22.3502 32.65L15.3502 25.65C14.4379 24.7377 14.4379 23.263 15.3502 22.3507Z" fill="#2E1AAD"/>
</svg>
